<svg width="21" height="22" viewBox="0 0 21 22" fill="none" xmlns="http://www.w3.org/2000/svg">
<path d="M15.5949 1.54492H5.40506C2.99702 1.54492 1.04492 3.49702 1.04492 5.90506V16.0949C1.04492 18.5029 2.99702 20.455 5.40506 20.455H15.5949C18.0029 20.455 19.955 18.5029 19.955 16.0949V5.90506C19.955 3.49702 18.0029 1.54492 15.5949 1.54492Z" fill="url(#paint0_linear_211_139)"/>
<path d="M13.5497 5.27581C14.2676 5.2787 14.9553 5.56515 15.4629 6.07277C15.9705 6.58039 16.2569 7.26803 16.2598 7.9859V14.0144C16.2569 14.7323 15.9705 15.4199 15.4629 15.9275C14.9553 16.4351 14.2676 16.7216 13.5497 16.7245H7.4505C6.73263 16.7216 6.04499 16.4351 5.53737 15.9275C5.02975 15.4199 4.7433 14.7323 4.74041 14.0144V7.9859C4.7433 7.26803 5.02975 6.58039 5.53737 6.07277C6.04499 5.56515 6.73263 5.2787 7.4505 5.27581H13.5497ZM13.5497 4.0153H7.4505C5.26657 4.0153 3.47949 5.80441 3.47949 7.98631V14.0144C3.47949 16.1983 5.2686 17.9854 7.4505 17.9854H13.5497C15.7337 17.9854 17.5208 16.1963 17.5208 14.0144V7.9859C17.5208 5.80197 15.7337 4.01489 13.5497 4.01489V4.0153Z" fill="white"/>
<path d="M10.5003 8.64674C10.9657 8.64674 11.4207 8.78475 11.8076 9.04331C12.1946 9.30187 12.4962 9.66937 12.6743 10.0993C12.8524 10.5293 12.899 11.0024 12.8082 11.4589C12.7174 11.9153 12.4933 12.3346 12.1642 12.6637C11.8351 12.9928 11.4158 13.2169 10.9594 13.3077C10.5029 13.3985 10.0298 13.3519 9.59983 13.1738C9.16986 12.9957 8.80236 12.6941 8.5438 12.3071C8.28524 11.9202 8.14723 11.4652 8.14723 10.9998C8.14798 10.376 8.39614 9.7779 8.83726 9.33677C9.27839 8.89565 9.87647 8.64749 10.5003 8.64674ZM10.5003 7.38623C9.78561 7.38623 9.08696 7.59816 8.49271 7.99523C7.89846 8.3923 7.43529 8.95666 7.16179 9.61696C6.88828 10.2773 6.81672 11.0038 6.95615 11.7048C7.09559 12.4058 7.43975 13.0497 7.94512 13.555C8.45049 14.0604 9.09437 14.4046 9.79534 14.544C10.4963 14.6834 11.2229 14.6119 11.8832 14.3384C12.5435 14.0648 13.1078 13.6017 13.5049 13.0074C13.902 12.4132 14.1139 11.7145 14.1139 10.9998C14.1139 10.0414 13.7332 9.12231 13.0555 8.44463C12.3778 7.76695 11.4587 7.38623 10.5003 7.38623Z" fill="white"/>
<path d="M14.1927 8.08433C14.6658 8.08433 15.0494 7.70075 15.0494 7.22759C15.0494 6.75442 14.6658 6.37085 14.1927 6.37085C13.7195 6.37085 13.3359 6.75442 13.3359 7.22759C13.3359 7.70075 13.7195 8.08433 14.1927 8.08433Z" fill="white"/>
<defs>
<linearGradient id="paint0_linear_211_139" x1="13.4386" y1="21.2487" x2="7.56135" y2="0.751207" gradientUnits="userSpaceOnUse">
<stop stop-color="#FFDB73"/>
<stop offset="0.08" stop-color="#FDAD4E"/>
<stop offset="0.15" stop-color="#FB832E"/>
<stop offset="0.19" stop-color="#FA7321"/>
<stop offset="0.23" stop-color="#F6692F"/>
<stop offset="0.37" stop-color="#E84A5A"/>
<stop offset="0.48" stop-color="#E03675"/>
<stop offset="0.55" stop-color="#DD2F7F"/>
<stop offset="0.68" stop-color="#B43D97"/>
<stop offset="0.97" stop-color="#4D60D4"/>
<stop offset="1" stop-color="#4264DB"/>
</linearGradient>
</defs>
</svg>
