<svg width="22" height="22" viewBox="0 0 22 22" fill="none" xmlns="http://www.w3.org/2000/svg">
<path d="M16.4492 2.26147H4.73223C3.12052 2.26147 1.81396 3.56802 1.81396 5.17974V16.8967C1.81396 18.5084 3.12052 19.8149 4.73223 19.8149H16.4492C18.0609 19.8149 19.3674 18.5084 19.3674 16.8967V5.17974C19.3674 3.56802 18.0609 2.26147 16.4492 2.26147Z" fill="black"/>
<path d="M16.0619 9.60217V7.26141C13.0022 7.13221 12.9037 4.35176 12.9037 4.09049V4.0708H10.5388V13.1873C10.5385 13.5813 10.414 13.9651 10.183 14.2843C9.95203 14.6034 9.62628 14.8415 9.25211 14.9648C8.87795 15.0881 8.47444 15.0903 8.09898 14.971C7.72352 14.8517 7.39523 14.6171 7.16083 14.3004C6.92642 13.9838 6.79783 13.6013 6.79335 13.2074C6.78887 12.8135 6.90872 12.4282 7.13587 12.1063C7.36301 11.7844 7.68588 11.5424 8.05853 11.4146C8.43118 11.2868 8.83464 11.2798 9.21151 11.3946V8.98037C9.03032 8.95713 8.84784 8.94548 8.66518 8.94551C7.82622 8.94551 7.00611 9.19429 6.30854 9.66039C5.61097 10.1265 5.06729 10.789 4.74623 11.5641C4.42518 12.3392 4.34118 13.192 4.50485 14.0149C4.66852 14.8377 5.07252 15.5935 5.66575 16.1868C6.25898 16.78 7.0148 17.184 7.83764 17.3477C8.66047 17.5113 9.51336 17.4273 10.2885 17.1063C11.0636 16.7852 11.726 16.2415 12.1921 15.544C12.6582 14.8464 12.907 14.0263 12.907 13.1873C12.907 13.1279 12.907 13.0688 12.9029 13.0102V8.521C13.9919 9.51727 16.0619 9.60217 16.0619 9.60217Z" fill="#00F6EF"/>
<path d="M16.7582 10.1798V7.83782C13.698 7.70862 13.6 4.92817 13.6 4.6669V4.64722H11.2351V13.7638C11.2349 14.1577 11.1105 14.5416 10.8795 14.8608C10.6486 15.18 10.3229 15.4182 9.94869 15.5415C9.57454 15.6649 9.17101 15.6671 8.79551 15.5479C8.42002 15.4287 8.09169 15.194 7.85724 14.8774C7.62278 14.5608 7.49415 14.1783 7.48964 13.7844C7.48512 13.3905 7.60496 13.0051 7.8321 12.6832C8.05924 12.3613 8.3821 12.1192 8.75477 11.9914C9.12743 11.8636 9.53091 11.8566 9.90779 11.9714V9.55679C9.72617 9.53404 9.54328 9.52294 9.36024 9.52356C8.52126 9.52381 7.7012 9.77284 7.00376 10.2392C6.30632 10.7055 5.76283 11.3681 5.44201 12.1434C5.12119 12.9186 5.03746 13.7715 5.20141 14.5943C5.36535 15.4171 5.76961 16.1728 6.36305 16.7658C6.9565 17.3589 7.71247 17.7626 8.53538 17.926C9.35829 18.0894 10.2112 18.0051 10.9862 17.6838C11.7612 17.3624 12.4235 16.8185 12.8893 16.1207C13.3552 15.423 13.6036 14.6027 13.6033 13.7638C13.6033 13.7043 13.6033 13.6452 13.5992 13.5866V9.09741C14.6882 10.0937 16.7582 10.1798 16.7582 10.1798Z" fill="white"/>
<path d="M12.9624 4.64722C13.0764 5.26819 13.4095 6.23903 14.3803 6.8071C13.6383 5.9429 13.601 4.82769 13.601 4.6669V4.64722H12.9624Z" fill="#FF004F"/>
<path d="M16.7583 10.1796V7.83765C16.5241 7.82906 16.2909 7.80163 16.0611 7.75562V9.59927C16.0611 9.59927 13.991 9.51437 12.9029 8.5181V13.006C12.9053 13.0647 12.907 13.1237 12.907 13.1832C12.9069 13.9507 12.6986 14.7037 12.3043 15.3621C11.91 16.0206 11.3445 16.5597 10.668 16.9221C9.99151 17.2845 9.22938 17.4566 8.4628 17.4201C7.69622 17.3835 6.95391 17.1397 6.31494 16.7147C6.90257 17.3215 7.65803 17.7391 8.4845 17.9139C9.31097 18.0886 10.1708 18.0126 10.9538 17.6956C11.7368 17.3786 12.4073 16.8349 12.8794 16.1344C13.3514 15.4339 13.6035 14.6083 13.6034 13.7636C13.6034 13.7041 13.6034 13.645 13.5993 13.5864V9.09724C14.6883 10.0935 16.7583 10.1796 16.7583 10.1796Z" fill="#FF004F"/>
<path d="M9.2117 11.3909C8.76012 11.2532 8.2732 11.291 7.84828 11.4967C7.42336 11.7025 7.09177 12.0611 6.91978 12.5007C6.7478 12.9404 6.7481 13.4288 6.92064 13.8682C7.09317 14.3077 7.42522 14.6659 7.85039 14.8711C7.61804 14.5537 7.49145 14.1713 7.48854 13.7779C7.48563 13.3846 7.60656 13.0003 7.83419 12.6796C8.06182 12.3588 8.38461 12.1178 8.75684 11.9906C9.12906 11.8635 9.53185 11.8567 9.90815 11.9713V9.55668C9.72652 9.53394 9.54363 9.52284 9.36059 9.52346C9.31014 9.52346 9.26051 9.52346 9.21047 9.52633L9.2117 11.3909Z" fill="#FF004F"/>
</svg>
