<svg width="25" height="25" viewBox="0 0 25 25" fill="none" xmlns="http://www.w3.org/2000/svg">
<path d="M25 12.6108C25 5.94431 19.5957 0.540039 12.9292 0.540039C6.26267 0.540039 0.858398 5.94431 0.858398 12.6108C0.858398 18.6357 5.27254 23.6294 11.0431 24.535V16.1H7.97828V12.6108H11.0431V9.95149C11.0431 6.92624 12.8452 5.25519 15.6025 5.25519C16.9231 5.25519 18.3045 5.49095 18.3045 5.49095V8.4615H16.7824C15.2829 8.4615 14.8153 9.39194 14.8153 10.3465V12.6108H18.163L17.6278 16.1H14.8153V24.535C20.5859 23.6294 25 18.6357 25 12.6108Z" fill="#1877F2"/>
<path d="M17.6281 16.0997L18.1632 12.6105H14.8155V10.3462C14.8155 9.39163 15.2831 8.46119 16.7826 8.46119H18.3047V5.49064C18.3047 5.49064 16.9233 5.25488 15.6027 5.25488C12.8455 5.25488 11.0434 6.92593 11.0434 9.95118V12.6105H7.97852V16.0997H11.0434V24.5347C11.6579 24.6311 12.2878 24.6813 12.9294 24.6813C13.5711 24.6813 14.2009 24.6311 14.8155 24.5347V16.0997H17.6281Z" fill="white"/>
</svg>
